<svg width="30" height="30" viewBox="0 0 30 30" fill="none" xmlns="http://www.w3.org/2000/svg">
<path opacity="0.4" d="M23.1373 2.25016C22.5123 2.25016 22.0123 2.75016 22.0123 3.37516V9.18766C22.0123 9.81266 22.5123 10.3127 23.1373 10.3127C23.7623 10.3127 24.2623 9.81266 24.2623 9.18766V3.37516C24.2623 2.75016 23.7623 2.25016 23.1373 2.25016Z" fill="#3E474F"/>
<path d="M15.0001 19.6875C14.3751 19.6875 13.8751 20.1875 13.8751 20.8125V26.625C13.8751 27.25 14.3751 27.75 15.0001 27.75C15.6251 27.75 16.1251 27.25 16.1251 26.625V20.8125C16.1251 20.2 15.6251 19.6875 15.0001 19.6875Z" fill="#082563"/>
<path opacity="0.4" d="M6.86291 2.25016C6.23791 2.25016 5.73792 2.75016 5.73792 3.37516V9.18766C5.73792 9.81266 6.23791 10.3127 6.86291 10.3127C7.48791 10.3127 7.98791 9.81266 7.98791 9.18766V3.37516C7.98791 2.75016 7.47541 2.25016 6.86291 2.25016Z" fill="#3E474F"/>
<path opacity="0.4" d="M9.18747 12.7128H4.53748C3.91248 12.7128 3.41248 13.2128 3.41248 13.8378C3.41248 14.4628 3.91248 14.9628 4.53748 14.9628H5.73748V26.6253C5.73748 27.2503 6.23747 27.7503 6.86247 27.7503C7.48747 27.7503 7.98747 27.2503 7.98747 26.6253V14.9628H9.18747C9.81247 14.9628 10.3125 14.4628 10.3125 13.8378C10.3125 13.2128 9.79997 12.7128 9.18747 12.7128Z" fill="#3E474F"/>
<path opacity="0.4" d="M25.4625 12.7128H20.8125C20.1875 12.7128 19.6875 13.2128 19.6875 13.8378C19.6875 14.4628 20.1875 14.9628 20.8125 14.9628H22.0125V26.6253C22.0125 27.2503 22.5125 27.7503 23.1375 27.7503C23.7625 27.7503 24.2625 27.2503 24.2625 26.6253V14.9628H25.4625C26.0875 14.9628 26.5875 14.4628 26.5875 13.8378C26.5875 13.2128 26.0875 12.7128 25.4625 12.7128Z" fill="#3E474F"/>
<path d="M17.3247 15.0377H16.1247V3.37516C16.1247 2.75016 15.6247 2.25016 14.9997 2.25016C14.3747 2.25016 13.8747 2.75016 13.8747 3.37516V15.0377H12.6747C12.0497 15.0377 11.5497 15.5377 11.5497 16.1627C11.5497 16.7877 12.0497 17.2877 12.6747 17.2877H17.3247C17.9497 17.2877 18.4497 16.7877 18.4497 16.1627C18.4497 15.5377 17.9497 15.0377 17.3247 15.0377Z" fill="#082563"/>
</svg>
