<svg width="30" height="30" viewBox="0 0 30 30" fill="none" xmlns="http://www.w3.org/2000/svg">
<path d="M6.75 6C6.75 5.17157 7.42157 4.5 8.25 4.5H21.75C22.5784 4.5 23.25 5.17157 23.25 6V24C23.25 24.8284 22.5784 25.5 21.75 25.5H8.25C7.42157 25.5 6.75 24.8284 6.75 24V6Z" fill="#C2CCDE" fill-opacity="0.25"/>
<path d="M10.5 9H19.5M10.5 12H16.5M10.5 15H19.5M10.5 18H16.5M10.5 21H19.5M8.25 25.5H21.75C22.5784 25.5 23.25 24.8284 23.25 24V6C23.25 5.17157 22.5784 4.5 21.75 4.5H8.25C7.42157 4.5 6.75 5.17157 6.75 6V24C6.75 24.8284 7.42157 25.5 8.25 25.5Z" stroke="#082563" stroke-linecap="round" stroke-linejoin="round"/>
</svg>
