<svg width="25" height="21" viewBox="0 0 25 21" fill="none" xmlns="http://www.w3.org/2000/svg">
<path d="M0 6.20326V5.42201C0 4.77479 0.524658 4.25013 1.17188 4.25013H18.75V1.90638C18.75 0.863074 20.0146 0.341834 20.7505 1.07772L24.6568 4.98397C25.1144 5.44164 25.1144 6.18363 24.6568 6.64125L20.7505 10.5475C20.0174 11.2805 18.75 10.7665 18.75 9.71889V7.37514H1.17188C0.524658 7.37514 0 6.85048 0 6.20326ZM23.8281 13.6251H6.25V11.2814C6.25 10.2407 4.98721 9.71498 4.24946 10.4527L0.343213 14.359C-0.114404 14.8166 -0.114404 15.5586 0.343213 16.0162L4.24946 19.9225C4.98325 20.6562 6.25 20.1406 6.25 19.0939V16.7501H23.8281C24.4753 16.7501 25 16.2255 25 15.5783V14.797C25 14.1498 24.4753 13.6251 23.8281 13.6251Z" fill="#082563"/>
</svg>
