<svg width="24" height="25" viewBox="0 0 24 25" fill="none" xmlns="http://www.w3.org/2000/svg">
<path d="M2 17.56H12" stroke="#082563" stroke-width="1.5" stroke-miterlimit="10" stroke-linecap="round" stroke-linejoin="round"/>
<path d="M4.21997 14H9.78003C11.56 14 12 14.44 12 16.2V20.31C12 22.07 11.56 22.51 9.78003 22.51H4.21997C2.43997 22.51 2 22.07 2 20.31V16.2C2 14.44 2.43997 14 4.21997 14Z" stroke="#082563" stroke-width="1.5" stroke-linecap="round" stroke-linejoin="round"/>
<path d="M22 15.5C22 19.37 18.87 22.5 15 22.5L16.05 20.75" stroke="#082563" stroke-width="1.5" stroke-linecap="round" stroke-linejoin="round"/>
<path d="M2 9.5C2 5.63 5.13 2.5 9 2.5L7.95001 4.25" stroke="#082563" stroke-width="1.5" stroke-linecap="round" stroke-linejoin="round"/>
<path d="M18.5 11.5C20.9853 11.5 23 9.48528 23 7C23 4.51472 20.9853 2.5 18.5 2.5C16.0147 2.5 14 4.51472 14 7C14 9.48528 16.0147 11.5 18.5 11.5Z" stroke="#082563" stroke-width="1.5" stroke-linecap="round" stroke-linejoin="round"/>
</svg>
