<svg width="30" height="30" viewBox="0 0 30 30" fill="none" xmlns="http://www.w3.org/2000/svg">
<path d="M11.6448 26.25C9.70317 25.6703 7.9447 24.5977 6.54058 23.1367C6.99235 22.6009 7.27397 21.9425 7.34941 21.2457C7.42484 20.5489 7.29066 19.8454 6.96404 19.2253C6.63741 18.6052 6.13319 18.0967 5.51591 17.7648C4.89862 17.4329 4.19634 17.2927 3.49893 17.3622C3.34005 16.5839 3.26021 15.7916 3.26062 14.9973C3.26062 13.7706 3.44845 12.5872 3.79828 11.4755H3.84759C4.44615 11.4757 5.03488 11.3234 5.5582 11.0328C6.08151 10.7423 6.52214 10.3231 6.83848 9.815C7.15482 9.30686 7.33643 8.72648 7.36615 8.12866C7.39588 7.53084 7.27275 6.9353 7.00839 6.39829C8.38458 5.11684 10.0489 4.18533 11.8608 3.6824C12.1557 4.26139 12.605 4.74751 13.159 5.08698C13.713 5.42645 14.3502 5.60605 14.9999 5.60588C15.6497 5.60605 16.2868 5.42645 16.8408 5.08698C17.3948 4.74751 17.8441 4.26139 18.139 3.6824C19.9509 4.18533 21.6152 5.11684 22.9914 6.39829C22.7251 6.93906 22.6021 7.53914 22.6341 8.14107C22.6661 8.74301 22.8521 9.32666 23.1742 9.83615C23.4963 10.3456 23.9438 10.7639 24.4739 11.051C25.0039 11.338 25.5988 11.4842 26.2015 11.4755C26.559 12.6152 26.7403 13.8029 26.7392 14.9973C26.7392 15.8073 26.657 16.5985 26.5009 17.3628C25.8035 17.2933 25.1012 17.4335 24.4839 17.7654C23.8666 18.0973 23.3624 18.6058 23.0358 19.2259C22.7091 19.846 22.575 20.5495 22.6504 21.2463C22.7258 21.9431 23.0075 22.6015 23.4592 23.1373C22.055 24.5981 20.2966 25.6705 18.355 26.25C18.127 25.5394 17.6792 24.9195 17.0762 24.4797C16.4733 24.0399 15.7462 23.8029 14.9999 23.8029C14.2536 23.8029 13.5265 24.0399 12.9236 24.4797C12.3206 24.9195 11.8728 25.5394 11.6448 26.25Z" stroke="#0E214F" stroke-linejoin="round"/>
<path d="M15 19.1059C15.5396 19.1059 16.0738 18.9996 16.5723 18.7931C17.0708 18.5867 17.5238 18.284 17.9053 17.9025C18.2868 17.5209 18.5895 17.068 18.796 16.5695C19.0025 16.071 19.1087 15.5367 19.1087 14.9971C19.1087 14.4576 19.0025 13.9233 18.796 13.4248C18.5895 12.9263 18.2868 12.4734 17.9053 12.0918C17.5238 11.7103 17.0708 11.4076 16.5723 11.2012C16.0738 10.9947 15.5396 10.8884 15 10.8884C13.9103 10.8884 12.8652 11.3213 12.0947 12.0918C11.3241 12.8624 10.8912 13.9074 10.8912 14.9971C10.8912 16.0869 11.3241 17.1319 12.0947 17.9025C12.8652 18.673 13.9103 19.1059 15 19.1059Z" stroke="#0E214F" stroke-linejoin="round"/>
</svg>
