<svg width="26" height="28" viewBox="0 0 26 28" fill="none" xmlns="http://www.w3.org/2000/svg">
<path d="M5.2888 19.8333H4.23111C3.67007 19.8333 3.13202 19.5875 2.7353 19.1499C2.33859 18.7123 2.11572 18.1188 2.11572 17.5V5.83333C2.11572 5.21449 2.33859 4.621 2.7353 4.18342C3.13202 3.74583 3.67007 3.5 4.23111 3.5H21.1542C21.7152 3.5 22.2533 3.74583 22.65 4.18342C23.0467 4.621 23.2696 5.21449 23.2696 5.83333V17.5C23.2696 18.1188 23.0467 18.7123 22.65 19.1499C22.2533 19.5875 21.7152 19.8333 21.1542 19.8333H20.0965" stroke="#082563" stroke-width="2" stroke-linecap="round" stroke-linejoin="round"/>
<path d="M12.6923 17.5L17.9807 24.5H7.40381L12.6923 17.5Z" stroke="#082563" stroke-width="2" stroke-linecap="round" stroke-linejoin="round"/>
</svg>
