<svg width="46" height="35" viewBox="0 0 46 35" fill="none" xmlns="http://www.w3.org/2000/svg">
<path d="M8.20811 34.9226V32.5996C8.20811 31.709 7.66596 31.1284 6.73668 31.1284C6.27213 31.1284 5.76878 31.2832 5.42028 31.7866C5.14938 31.3607 4.76226 31.1284 4.18148 31.1284C3.79418 31.1284 3.40723 31.2444 3.09735 31.6704V31.2058H2.2843V34.9226H3.09735V32.8705C3.09735 32.2125 3.44585 31.9026 3.98801 31.9026C4.5298 31.9026 4.80106 32.2511 4.80106 32.8705V34.9226H5.61411V32.8705C5.61411 32.2125 6.00106 31.9026 6.50441 31.9026C7.04656 31.9026 7.31746 32.2511 7.31746 32.8705V34.9226H8.20811ZM20.2489 31.2058H18.9326V30.0831H18.1196V31.2058H17.384V31.9413H18.1194V33.645C18.1194 34.4968 18.4679 35 19.3972 35C19.7457 35 20.1326 34.8839 20.4039 34.7291L20.1714 34.0321C19.9392 34.1869 19.6683 34.2257 19.4746 34.2257C19.0875 34.2257 18.9326 33.9935 18.9326 33.6062V31.9413H20.2489V31.2058ZM27.1406 31.1282C26.676 31.1282 26.3663 31.3607 26.1727 31.6704V31.2058H25.3596V34.9226H26.1727V32.8319C26.1727 32.2125 26.4436 31.864 26.9469 31.864C27.1018 31.864 27.2954 31.9028 27.4503 31.9414L27.6825 31.1672C27.5277 31.1284 27.2954 31.1284 27.1406 31.1284V31.1282ZM16.7257 31.5155C16.3384 31.2444 15.7965 31.1284 15.2157 31.1284C14.2866 31.1284 13.6672 31.5929 13.6672 32.3286C13.6672 32.9481 14.1317 33.2965 14.9448 33.4127L15.3319 33.4515C15.7578 33.5287 15.9901 33.645 15.9901 33.8386C15.9901 34.1095 15.6804 34.3032 15.1383 34.3032C14.5963 34.3032 14.1704 34.1095 13.8993 33.916L13.5122 34.5354C13.9381 34.8451 14.5189 35 15.0995 35C16.1836 35 16.8032 34.4968 16.8032 33.7998C16.8032 33.1416 16.2998 32.7931 15.5254 32.6771L15.1383 32.6383C14.7898 32.5995 14.5189 32.5222 14.5189 32.2899C14.5189 32.0189 14.7898 31.864 15.2157 31.864C15.6804 31.864 16.145 32.0575 16.3772 32.1737L16.7257 31.5155ZM38.3298 31.1284C37.8651 31.1284 37.5554 31.3607 37.3617 31.6704V31.2058H36.5487V34.9226H37.3617V32.8319C37.3617 32.2125 37.6328 31.864 38.136 31.864C38.291 31.864 38.4847 31.9028 38.6395 31.9414L38.8718 31.1672C38.7169 31.1284 38.4847 31.1284 38.3298 31.1284ZM27.9536 33.0642C27.9536 34.1869 28.7279 35 29.9282 35C30.4702 35 30.8573 34.8839 31.2444 34.5742L30.8573 33.916C30.5476 34.1483 30.2379 34.2644 29.8894 34.2644C29.2312 34.2644 28.7667 33.7998 28.7667 33.0642C28.7667 32.3674 29.2312 31.9026 29.8894 31.864C30.2379 31.864 30.5476 31.9801 30.8573 32.2125L31.2444 31.5543C30.8573 31.2444 30.4702 31.1284 29.9282 31.1284C28.7279 31.1284 27.9536 31.9414 27.9536 33.0642ZM35.4647 33.0642V31.2058H34.6517V31.6704C34.3806 31.322 33.9935 31.1284 33.4901 31.1284C32.4448 31.1284 31.6317 31.9414 31.6317 33.0642C31.6317 34.1869 32.4448 35 33.4901 35C34.0321 35 34.4194 34.8065 34.6517 34.458V34.9226H35.4647V33.0642ZM32.4834 33.0642C32.4834 32.406 32.9093 31.864 33.6062 31.864C34.2644 31.864 34.7291 32.3674 34.7291 33.0642C34.7291 33.7224 34.2644 34.2644 33.6062 34.2644C32.9093 34.2256 32.4834 33.7224 32.4834 33.0642ZM22.7656 31.1284C21.6815 31.1284 20.9071 31.9026 20.9071 33.0642C20.9071 34.2257 21.6813 35 22.8042 35C23.3462 35 23.8884 34.8451 24.3143 34.4968L23.927 33.916C23.6173 34.1483 23.2302 34.3032 22.843 34.3032C22.3397 34.3032 21.8363 34.0709 21.7201 33.4125H24.4691V33.103C24.5079 31.9026 23.8109 31.1284 22.7654 31.1284H22.7656ZM22.7656 31.8252C23.2688 31.8252 23.6175 32.1351 23.6947 32.7159H21.7589C21.8363 32.2125 22.1848 31.8252 22.7656 31.8252ZM42.937 33.0642V29.7346H42.124V31.6704C41.8529 31.322 41.4658 31.1284 40.9624 31.1284C39.9171 31.1284 39.1041 31.9414 39.1041 33.0642C39.1041 34.1869 39.9171 35 40.9624 35C41.5046 35 41.8917 34.8065 42.124 34.458V34.9226H42.937V33.0642ZM39.9559 33.0642C39.9559 32.406 40.3817 31.864 41.0787 31.864C41.7369 31.864 42.2014 32.3674 42.2014 33.0642C42.2014 33.7224 41.7369 34.2644 41.0787 34.2644C40.3817 34.2256 39.9559 33.7224 39.9559 33.0642ZM12.7765 33.0642V31.2058H11.9635V31.6704C11.6924 31.322 11.3053 31.1284 10.8019 31.1284C9.75661 31.1284 8.94356 31.9414 8.94356 33.0642C8.94356 34.1869 9.75661 35 10.8019 35C11.3441 35 11.7312 34.8065 11.9635 34.458V34.9226H12.7765V33.0642ZM9.75661 33.0642C9.75661 32.406 10.1825 31.864 10.8794 31.864C11.5376 31.864 12.0023 32.3674 12.0023 33.0642C12.0023 33.7224 11.5376 34.2644 10.8794 34.2644C10.1825 34.2256 9.75661 33.7224 9.75661 33.0642Z" fill="black"/>
<path d="M16.4546 2.98114H28.6504V24.8949H16.4546V2.98114Z" fill="#FF5F00"/>
<path d="M17.2291 13.9381C17.2291 9.48571 19.3198 5.53651 22.5332 2.98113C20.1716 1.12275 17.1905 0 13.9383 0C6.23333 0 0 6.23333 0 13.9381C0 21.6427 6.23333 27.8762 13.9381 27.8762C17.1903 27.8762 20.1714 26.7534 22.5332 24.8949C19.3198 22.3783 17.2291 18.3905 17.2291 13.9381Z" fill="#EB001B"/>
<path d="M45.1051 13.9381C45.1051 21.6427 38.8717 27.8762 31.167 27.8762C27.9148 27.8762 24.9336 26.7534 22.5719 24.8949C25.8241 22.3397 27.8761 18.3905 27.8761 13.9381C27.8761 9.48571 25.7853 5.53651 22.5719 2.98113C24.9335 1.12275 27.9148 0 31.167 0C38.8717 0 45.1052 6.27213 45.1052 13.9381H45.1051Z" fill="#F79E1B"/>
</svg>
